<svg xmlns="http://www.w3.org/2000/svg" width="48" height="48" viewBox="0 0 48 48">
  <path id="Resize-Icon-SVG-0nwds" d="M68.444,2.826V16.332a2.5,2.5,0,0,1-2.5,2.5,2.5,2.5,0,0,1-2.5-2.5V8.711L51.96,20.192a2.386,2.386,0,1,1-3.376-3.372l11.491-11.5h-7.63a2.495,2.495,0,1,1,0-4.989h13.5a2.483,2.483,0,0,1,2.5,2.49m-45.5,45.5h13.51a2.5,2.5,0,0,0,0-5H28.819L39.606,32.542a2.36,2.36,0,0,0,.7-1.677,2.387,2.387,0,0,0-4.075-1.7L25.442,39.962V32.327a2.5,2.5,0,0,0-5,0v13.5a2.5,2.5,0,0,0,2.5,2.5m45.5-2.5v-13.5a2.5,2.5,0,0,0-5,0v7.634L51.96,28.466a2.388,2.388,0,0,0-3.376,0,2.394,2.394,0,0,0,0,3.381L60.074,43.329h-7.63a2.5,2.5,0,1,0,0,5h13.5a2.494,2.494,0,0,0,2.5-2.5m-48-43V16.332a2.5,2.5,0,1,0,4.994,0V8.706L36.229,19.484a2.386,2.386,0,1,0,3.376-3.372L28.823,5.325h7.63a2.5,2.5,0,0,0,2.5-2.5,2.549,2.549,0,0,0-.736-1.768A2.49,2.49,0,0,0,36.453.327H22.943a2.5,2.5,0,0,0-2.495,2.5" transform="translate(-20.444 -0.327)"/>
</svg>
